<svg width="488" height="274" viewBox="0 0 488 274" fill="none" xmlns="http://www.w3.org/2000/svg">
<mask id="path-1-outside-1_1_4" maskUnits="userSpaceOnUse" x="-4" y="-10" width="498" height="289" fill="black">
<rect fill="white" x="-4" y="-10" width="498" height="289"/>
<path d="M49.155 124.384C48.8195 126.934 47.7457 129.115 45.9337 130.927C44.1217 132.672 41.907 133.545 39.2897 133.545C37.7461 133.545 36.3368 133.243 35.0617 132.639C33.8537 132.035 32.847 131.229 32.0417 130.223C31.3035 129.149 30.733 127.941 30.3304 126.599C29.9277 125.189 29.7264 123.679 29.7264 122.069V118.042L35.7664 113.613V117.337C35.7664 118.277 36.0348 119.049 36.5717 119.653C37.1757 120.257 37.9139 120.559 38.7864 120.559C39.6588 120.559 40.4641 120.257 41.2024 119.653C41.9406 118.982 42.3097 118.21 42.3097 117.337V108.881L47.8464 104.955V108.378C47.8464 109.318 48.1484 110.123 48.7524 110.794C49.3564 111.398 50.0946 111.7 50.967 111.7C51.8395 111.7 52.5441 111.398 53.081 110.794C53.685 110.123 53.987 109.318 53.987 108.378V100.526L60.933 95.4927V113.311C60.933 116.532 60.0606 119.25 58.3157 121.465C56.5708 123.679 54.289 124.787 51.4704 124.787C50.7321 124.787 49.9604 124.652 49.155 124.384ZM47.38 273.103H44.36L31.072 259.815V256.997L44.36 243.809H47.38L59.46 255.386L71.1373 243.809H74.1573L87.9487 256.997V259.815L74.1573 273.103H71.1373L59.46 261.426L47.38 273.103ZM56.138 237.467C47.1451 237.467 39.0918 236.226 31.978 233.743C24.9313 231.26 19.2604 227.938 14.9653 223.777C10.6702 219.616 7.31467 214.75 4.89867 209.18C2.48267 203.677 1.20756 197.872 1.07333 191.765C0.939111 185.658 1.71089 179.45 3.38867 173.141C5.06644 166.833 7.65022 160.793 11.14 155.021H27.6493C24.6964 160.793 22.9516 166.028 22.4147 170.725C21.9449 175.423 22.4818 179.248 24.0253 182.201C25.5689 185.221 27.8507 187.704 30.8707 189.651C33.9578 191.664 37.3133 193.073 40.9373 193.879C44.5613 194.751 48.4202 195.187 52.514 195.187H78.8887C85.3313 195.187 90.0291 193.845 92.982 191.161C96.002 188.543 97.5456 185.49 97.6127 182H57.648V174.148C57.648 172.135 57.7487 170.155 57.95 168.209C58.1513 166.195 58.5204 163.947 59.0573 161.464C59.6613 158.981 60.4331 156.699 61.3727 154.619C62.3122 152.471 63.6209 150.357 65.2987 148.277C66.9764 146.196 68.8891 144.451 71.0367 143.042C73.1842 141.566 75.8351 140.391 78.9893 139.519C82.2107 138.579 85.7676 138.109 89.66 138.109H137.879V182H115.229V198.207C115.229 205.321 113.484 211.898 109.995 217.938C106.505 223.978 101.74 228.743 95.7 232.233C89.66 235.722 83.0831 237.467 75.9693 237.467H56.138ZM198.225 182H123.631V138.109H151.012C146.784 132.673 148.026 125.291 154.737 115.963L163.696 103.379C163.764 103.312 164.166 102.775 164.904 101.769C165.643 100.762 166.18 100.091 166.515 99.7553C166.851 99.3527 167.455 98.6144 168.327 97.5407C169.267 96.4669 170.106 95.6951 170.844 95.2253C171.649 94.6884 172.656 93.9838 173.864 93.1113C175.072 92.1718 176.313 91.4671 177.588 90.9973C178.864 90.5276 180.306 90.0242 181.917 89.4873C183.528 88.9504 185.306 88.5813 187.252 88.38C189.199 88.1116 191.246 87.9773 193.393 87.9773C196.547 87.9773 199.668 88.5142 202.755 89.588C205.842 90.5947 208.56 91.8698 210.909 93.4133C213.325 94.8898 215.64 96.7018 217.855 98.8493C220.137 100.93 221.982 102.842 223.392 104.587C224.868 106.332 226.244 108.178 227.519 110.124C228.861 112.003 229.7 113.278 230.036 113.949C230.438 114.553 230.74 115.057 230.942 115.459L207.688 125.727L205.574 123.009C204.232 121.13 202.453 119.05 200.238 116.768C198.091 114.419 196.212 112.775 194.601 111.835C190.843 109.755 186.783 109.117 182.42 109.923C178.125 110.661 174.401 112.607 171.246 115.761L171.347 118.077C171.414 119.62 171.85 121.499 172.656 123.714C173.461 125.862 174.568 128.043 175.978 130.257C177.454 132.405 179.736 134.25 182.823 135.794C185.977 137.338 189.702 138.109 193.997 138.109C199.165 138.109 205.138 137.841 211.916 137.304C218.761 136.7 223.492 136.23 226.11 135.895C228.794 135.492 230.908 135.19 232.452 134.989L216.446 170.222C214.835 173.779 212.352 176.631 208.996 178.779C205.708 180.926 202.118 182 198.225 182ZM276.475 32.9473V23.988L307.783 0.431995V10.398L276.475 32.9473ZM287.725 69.1527L274.537 55.8647V53.046L287.725 39.8587H290.745L304.536 53.046V55.8647L290.745 69.1527H287.725ZM281.987 182C277.021 182 272.491 180.792 268.397 178.376C264.303 175.893 261.149 172.604 258.934 168.511C252.491 156.364 253.565 140.894 262.155 122.103H271.517C271.45 122.305 271.383 122.607 271.316 123.009C271.249 123.412 271.148 124.184 271.014 125.325C270.88 126.398 270.846 127.439 270.913 128.445C270.981 129.452 271.182 130.559 271.517 131.767C271.92 132.975 272.457 134.049 273.128 134.989C273.866 135.861 274.94 136.599 276.349 137.203C277.759 137.807 279.437 138.109 281.383 138.109H310.375L310.475 137.203C310.543 136.599 310.442 135.727 310.173 134.586C309.905 133.445 309.469 132.136 308.865 130.66C308.328 129.116 307.254 127.405 305.643 125.526C304.033 123.58 302.087 121.6 299.805 119.587C297.523 117.573 294.402 115.426 290.443 113.144C286.483 110.795 281.987 108.547 276.953 106.399L288.731 79.32C295.912 82.0044 302.187 85.8969 307.556 90.9973C312.992 96.0978 317.119 101.668 319.938 107.708C322.757 113.748 324.804 120.124 326.079 126.835C327.354 133.479 327.757 139.854 327.287 145.961C326.884 152.068 325.777 157.572 323.965 162.471C322.354 168.108 319.166 172.772 314.401 176.463C309.704 180.154 304.335 182 298.295 182H281.987ZM384.495 67.3707C384.965 65.2231 384.227 63.2433 382.281 61.4313C380.334 59.5522 378.254 58.6127 376.039 58.6127C374.563 58.6127 373.456 59.4851 372.717 61.23C372.046 62.9749 371.711 64.3842 371.711 65.458C371.845 66.7331 372.617 67.3707 374.026 67.3707H384.495ZM375.234 79.1487C366.979 79.1487 363.691 75.0213 365.369 66.7667C366.107 63.5453 367.214 59.9884 368.691 56.096C370.033 52.6062 371.644 50.4251 373.523 49.5527C376.006 48.3447 378.724 48.4118 381.677 49.754C384.63 51.0962 387.079 53.4116 389.025 56.7C391.039 59.9213 392.045 63.3776 392.045 67.0687V70.29C392.045 71.1624 391.911 72.0349 391.643 72.9073C390.435 77.0682 387.079 79.1487 381.576 79.1487H375.234ZM372.019 121.197C366.583 121.197 363.865 124.15 363.865 130.056C363.865 132.74 364.872 134.754 366.885 136.096C368.965 137.438 371.147 138.109 373.428 138.109H394.367L390.743 133.881C388.327 131.063 385.24 128.244 381.482 125.425C377.791 122.607 374.636 121.197 372.019 121.197ZM388.83 237.87C384.535 239.95 376.75 239.246 365.476 235.756C338.9 227.166 325.578 222.871 325.511 222.871V217.133L331.551 215.119C335.511 213.777 340.477 211.898 346.45 209.482C352.49 207.066 358.597 204.415 364.771 201.529C370.945 198.711 376.583 195.523 381.683 191.966C386.851 188.409 390.24 185.087 391.85 182H373.126C367.019 182 361.818 179.852 357.523 175.557C353.228 171.262 351.08 166.061 351.08 159.954V130.861C351.08 122.204 353.362 115.224 357.926 109.923C362.556 104.621 369.905 101.97 379.972 101.97C386.079 101.97 391.649 103.514 396.682 106.601C401.716 109.621 405.742 113.882 408.762 119.385C411.849 124.888 413.628 131.13 414.098 138.109H441.278V182H411.279C410.675 193.61 408.091 205.187 403.528 216.73C398.964 228.273 394.065 235.32 388.83 237.87ZM441.926 53.9473V44.988L473.234 21.432V31.398L441.926 53.9473ZM427.401 182V138.109H448.339C452.433 138.109 455.05 137.338 456.191 135.794C457.332 134.183 457.399 131.834 456.393 128.747L441.796 84.6553C440.051 79.2193 441.293 74.7229 445.521 71.166L476.727 44.892L487.398 81.736L477.13 88.984V155.122C477.13 162.504 474.513 168.846 469.278 174.148C464.043 179.383 457.735 182 450.353 182H427.401Z"/>
</mask>
<path d="M49.155 124.384C48.8195 126.934 47.7457 129.115 45.9337 130.927C44.1217 132.672 41.907 133.545 39.2897 133.545C37.7461 133.545 36.3368 133.243 35.0617 132.639C33.8537 132.035 32.847 131.229 32.0417 130.223C31.3035 129.149 30.733 127.941 30.3304 126.599C29.9277 125.189 29.7264 123.679 29.7264 122.069V118.042L35.7664 113.613V117.337C35.7664 118.277 36.0348 119.049 36.5717 119.653C37.1757 120.257 37.9139 120.559 38.7864 120.559C39.6588 120.559 40.4641 120.257 41.2024 119.653C41.9406 118.982 42.3097 118.21 42.3097 117.337V108.881L47.8464 104.955V108.378C47.8464 109.318 48.1484 110.123 48.7524 110.794C49.3564 111.398 50.0946 111.7 50.967 111.7C51.8395 111.7 52.5441 111.398 53.081 110.794C53.685 110.123 53.987 109.318 53.987 108.378V100.526L60.933 95.4927V113.311C60.933 116.532 60.0606 119.25 58.3157 121.465C56.5708 123.679 54.289 124.787 51.4704 124.787C50.7321 124.787 49.9604 124.652 49.155 124.384ZM47.38 273.103H44.36L31.072 259.815V256.997L44.36 243.809H47.38L59.46 255.386L71.1373 243.809H74.1573L87.9487 256.997V259.815L74.1573 273.103H71.1373L59.46 261.426L47.38 273.103ZM56.138 237.467C47.1451 237.467 39.0918 236.226 31.978 233.743C24.9313 231.26 19.2604 227.938 14.9653 223.777C10.6702 219.616 7.31467 214.75 4.89867 209.18C2.48267 203.677 1.20756 197.872 1.07333 191.765C0.939111 185.658 1.71089 179.45 3.38867 173.141C5.06644 166.833 7.65022 160.793 11.14 155.021H27.6493C24.6964 160.793 22.9516 166.028 22.4147 170.725C21.9449 175.423 22.4818 179.248 24.0253 182.201C25.5689 185.221 27.8507 187.704 30.8707 189.651C33.9578 191.664 37.3133 193.073 40.9373 193.879C44.5613 194.751 48.4202 195.187 52.514 195.187H78.8887C85.3313 195.187 90.0291 193.845 92.982 191.161C96.002 188.543 97.5456 185.49 97.6127 182H57.648V174.148C57.648 172.135 57.7487 170.155 57.95 168.209C58.1513 166.195 58.5204 163.947 59.0573 161.464C59.6613 158.981 60.4331 156.699 61.3727 154.619C62.3122 152.471 63.6209 150.357 65.2987 148.277C66.9764 146.196 68.8891 144.451 71.0367 143.042C73.1842 141.566 75.8351 140.391 78.9893 139.519C82.2107 138.579 85.7676 138.109 89.66 138.109H137.879V182H115.229V198.207C115.229 205.321 113.484 211.898 109.995 217.938C106.505 223.978 101.74 228.743 95.7 232.233C89.66 235.722 83.0831 237.467 75.9693 237.467H56.138ZM198.225 182H123.631V138.109H151.012C146.784 132.673 148.026 125.291 154.737 115.963L163.696 103.379C163.764 103.312 164.166 102.775 164.904 101.769C165.643 100.762 166.18 100.091 166.515 99.7553C166.851 99.3527 167.455 98.6144 168.327 97.5407C169.267 96.4669 170.106 95.6951 170.844 95.2253C171.649 94.6884 172.656 93.9838 173.864 93.1113C175.072 92.1718 176.313 91.4671 177.588 90.9973C178.864 90.5276 180.306 90.0242 181.917 89.4873C183.528 88.9504 185.306 88.5813 187.252 88.38C189.199 88.1116 191.246 87.9773 193.393 87.9773C196.547 87.9773 199.668 88.5142 202.755 89.588C205.842 90.5947 208.56 91.8698 210.909 93.4133C213.325 94.8898 215.64 96.7018 217.855 98.8493C220.137 100.93 221.982 102.842 223.392 104.587C224.868 106.332 226.244 108.178 227.519 110.124C228.861 112.003 229.7 113.278 230.036 113.949C230.438 114.553 230.74 115.057 230.942 115.459L207.688 125.727L205.574 123.009C204.232 121.13 202.453 119.05 200.238 116.768C198.091 114.419 196.212 112.775 194.601 111.835C190.843 109.755 186.783 109.117 182.42 109.923C178.125 110.661 174.401 112.607 171.246 115.761L171.347 118.077C171.414 119.62 171.85 121.499 172.656 123.714C173.461 125.862 174.568 128.043 175.978 130.257C177.454 132.405 179.736 134.25 182.823 135.794C185.977 137.338 189.702 138.109 193.997 138.109C199.165 138.109 205.138 137.841 211.916 137.304C218.761 136.7 223.492 136.23 226.11 135.895C228.794 135.492 230.908 135.19 232.452 134.989L216.446 170.222C214.835 173.779 212.352 176.631 208.996 178.779C205.708 180.926 202.118 182 198.225 182ZM276.475 32.9473V23.988L307.783 0.431995V10.398L276.475 32.9473ZM287.725 69.1527L274.537 55.8647V53.046L287.725 39.8587H290.745L304.536 53.046V55.8647L290.745 69.1527H287.725ZM281.987 182C277.021 182 272.491 180.792 268.397 178.376C264.303 175.893 261.149 172.604 258.934 168.511C252.491 156.364 253.565 140.894 262.155 122.103H271.517C271.45 122.305 271.383 122.607 271.316 123.009C271.249 123.412 271.148 124.184 271.014 125.325C270.88 126.398 270.846 127.439 270.913 128.445C270.981 129.452 271.182 130.559 271.517 131.767C271.92 132.975 272.457 134.049 273.128 134.989C273.866 135.861 274.94 136.599 276.349 137.203C277.759 137.807 279.437 138.109 281.383 138.109H310.375L310.475 137.203C310.543 136.599 310.442 135.727 310.173 134.586C309.905 133.445 309.469 132.136 308.865 130.66C308.328 129.116 307.254 127.405 305.643 125.526C304.033 123.58 302.087 121.6 299.805 119.587C297.523 117.573 294.402 115.426 290.443 113.144C286.483 110.795 281.987 108.547 276.953 106.399L288.731 79.32C295.912 82.0044 302.187 85.8969 307.556 90.9973C312.992 96.0978 317.119 101.668 319.938 107.708C322.757 113.748 324.804 120.124 326.079 126.835C327.354 133.479 327.757 139.854 327.287 145.961C326.884 152.068 325.777 157.572 323.965 162.471C322.354 168.108 319.166 172.772 314.401 176.463C309.704 180.154 304.335 182 298.295 182H281.987ZM384.495 67.3707C384.965 65.2231 384.227 63.2433 382.281 61.4313C380.334 59.5522 378.254 58.6127 376.039 58.6127C374.563 58.6127 373.456 59.4851 372.717 61.23C372.046 62.9749 371.711 64.3842 371.711 65.458C371.845 66.7331 372.617 67.3707 374.026 67.3707H384.495ZM375.234 79.1487C366.979 79.1487 363.691 75.0213 365.369 66.7667C366.107 63.5453 367.214 59.9884 368.691 56.096C370.033 52.6062 371.644 50.4251 373.523 49.5527C376.006 48.3447 378.724 48.4118 381.677 49.754C384.63 51.0962 387.079 53.4116 389.025 56.7C391.039 59.9213 392.045 63.3776 392.045 67.0687V70.29C392.045 71.1624 391.911 72.0349 391.643 72.9073C390.435 77.0682 387.079 79.1487 381.576 79.1487H375.234ZM372.019 121.197C366.583 121.197 363.865 124.15 363.865 130.056C363.865 132.74 364.872 134.754 366.885 136.096C368.965 137.438 371.147 138.109 373.428 138.109H394.367L390.743 133.881C388.327 131.063 385.24 128.244 381.482 125.425C377.791 122.607 374.636 121.197 372.019 121.197ZM388.83 237.87C384.535 239.95 376.75 239.246 365.476 235.756C338.9 227.166 325.578 222.871 325.511 222.871V217.133L331.551 215.119C335.511 213.777 340.477 211.898 346.45 209.482C352.49 207.066 358.597 204.415 364.771 201.529C370.945 198.711 376.583 195.523 381.683 191.966C386.851 188.409 390.24 185.087 391.85 182H373.126C367.019 182 361.818 179.852 357.523 175.557C353.228 171.262 351.08 166.061 351.08 159.954V130.861C351.08 122.204 353.362 115.224 357.926 109.923C362.556 104.621 369.905 101.97 379.972 101.97C386.079 101.97 391.649 103.514 396.682 106.601C401.716 109.621 405.742 113.882 408.762 119.385C411.849 124.888 413.628 131.13 414.098 138.109H441.278V182H411.279C410.675 193.61 408.091 205.187 403.528 216.73C398.964 228.273 394.065 235.32 388.83 237.87ZM441.926 53.9473V44.988L473.234 21.432V31.398L441.926 53.9473ZM427.401 182V138.109H448.339C452.433 138.109 455.05 137.338 456.191 135.794C457.332 134.183 457.399 131.834 456.393 128.747L441.796 84.6553C440.051 79.2193 441.293 74.7229 445.521 71.166L476.727 44.892L487.398 81.736L477.13 88.984V155.122C477.13 162.504 474.513 168.846 469.278 174.148C464.043 179.383 457.735 182 450.353 182H427.401Z" fill="white"/>
<path d="M49.155 124.384L50.7361 119.641L44.9882 117.725L44.1978 123.732L49.155 124.384ZM45.9337 130.927L49.4019 134.529L49.4359 134.496L49.4692 134.463L45.9337 130.927ZM35.0617 132.639L32.8256 137.111L32.8732 137.135L32.9213 137.157L35.0617 132.639ZM32.0417 130.223L27.9215 133.055L28.0242 133.205L28.1374 133.346L32.0417 130.223ZM30.3304 126.599L25.5227 127.972L25.5318 128.004L25.5412 128.035L30.3304 126.599ZM29.7264 118.042L26.7695 114.01L24.7264 115.508V118.042H29.7264ZM35.7664 113.613H40.7664V103.746L32.8095 109.581L35.7664 113.613ZM36.5717 119.653L32.8346 122.974L32.9323 123.084L33.0362 123.188L36.5717 119.653ZM41.2024 119.653L44.3685 123.522L44.4693 123.44L44.5657 123.352L41.2024 119.653ZM42.3097 108.881L39.4176 104.803L37.3097 106.297V108.881H42.3097ZM47.8464 104.955H52.8464V95.2805L44.9542 100.877L47.8464 104.955ZM48.7524 110.794L45.0359 114.139L45.1239 114.237L45.2168 114.33L48.7524 110.794ZM53.081 110.794L49.3646 107.449L49.3542 107.461L49.344 107.472L53.081 110.794ZM53.987 100.526L51.0532 96.4773L48.987 97.9745V100.526H53.987ZM60.933 95.4927H65.933V85.6947L57.9992 91.4439L60.933 95.4927ZM44.1978 123.732C44.0052 125.195 43.4286 126.361 42.3982 127.392L49.4692 134.463C52.0628 131.869 53.6337 128.673 54.1123 125.036L44.1978 123.732ZM42.4655 127.326C41.6262 128.134 40.6716 128.545 39.2897 128.545V138.545C43.1424 138.545 46.6172 137.21 49.4019 134.529L42.4655 127.326ZM39.2897 128.545C38.4159 128.545 37.7473 128.378 37.2021 128.12L32.9213 137.157C34.9264 138.107 37.0763 138.545 39.2897 138.545V128.545ZM37.2978 128.167C36.7053 127.87 36.2779 127.514 35.946 127.099L28.1374 133.346C29.4162 134.945 31.0021 136.199 32.8256 137.111L37.2978 128.167ZM36.1619 127.39C35.7391 126.775 35.3842 126.044 35.1195 125.162L25.5412 128.035C26.0818 129.837 26.8678 131.523 27.9215 133.055L36.1619 127.39ZM35.138 125.225C34.8749 124.304 34.7264 123.26 34.7264 122.069H24.7264C24.7264 124.098 24.9805 126.075 25.5227 127.972L35.138 125.225ZM34.7264 122.069V118.042H24.7264V122.069H34.7264ZM32.6832 122.074L38.7232 117.645L32.8095 109.581L26.7695 114.01L32.6832 122.074ZM30.7664 113.613V117.337H40.7664V113.613H30.7664ZM30.7664 117.337C30.7664 119.29 31.3539 121.309 32.8346 122.974L40.3088 116.331C40.4806 116.524 40.6116 116.752 40.6902 116.978C40.7649 117.193 40.7664 117.33 40.7664 117.337H30.7664ZM33.0362 123.188C34.6001 124.752 36.6196 125.559 38.7864 125.559V115.559C38.9382 115.559 39.1856 115.587 39.4715 115.704C39.7596 115.822 39.9734 115.983 40.1072 116.117L33.0362 123.188ZM38.7864 125.559C40.9231 125.559 42.8261 124.784 44.3685 123.522L38.0362 115.783C38.0441 115.776 38.1279 115.711 38.2891 115.651C38.456 115.588 38.6318 115.559 38.7864 115.559V125.559ZM44.5657 123.352C46.1813 121.884 47.3097 119.827 47.3097 117.337H37.3097C37.3097 117.042 37.3781 116.715 37.5222 116.413C37.6591 116.127 37.8079 115.981 37.839 115.953L44.5657 123.352ZM47.3097 117.337V108.881H37.3097V117.337H47.3097ZM45.2018 112.96L50.7385 109.034L44.9542 100.877L39.4176 104.803L45.2018 112.96ZM42.8464 104.955V108.378H52.8464V104.955H42.8464ZM42.8464 108.378C42.8464 110.498 43.5695 112.509 45.0359 114.139L52.4688 107.449C52.564 107.555 52.6752 107.719 52.7545 107.931C52.8327 108.139 52.8464 108.304 52.8464 108.378H42.8464ZM45.2168 114.33C46.7807 115.893 48.8003 116.7 50.967 116.7V106.7C51.1188 106.7 51.3663 106.729 51.6522 106.846C51.9403 106.964 52.1541 107.125 52.2879 107.258L45.2168 114.33ZM50.967 116.7C53.1397 116.7 55.2505 115.879 56.8181 114.116L49.344 107.472C49.5368 107.255 49.8205 107.032 50.1803 106.878C50.5305 106.728 50.8192 106.7 50.967 106.7V116.7ZM56.7975 114.139C58.2639 112.509 58.987 110.498 58.987 108.378H48.987C48.987 108.304 49.0007 108.139 49.0789 107.931C49.1582 107.719 49.2694 107.555 49.3646 107.449L56.7975 114.139ZM58.987 108.378V100.526H48.987V108.378H58.987ZM56.9209 104.575L63.8669 99.5414L57.9992 91.4439L51.0532 96.4773L56.9209 104.575ZM55.933 95.4927V113.311H65.933V95.4927H55.933ZM55.933 113.311C55.933 115.577 55.3411 117.161 54.3882 118.37L62.2432 124.559C64.7801 121.339 65.933 117.487 65.933 113.311H55.933ZM54.3882 118.37C53.5911 119.382 52.7566 119.787 51.4704 119.787V129.787C55.8215 129.787 59.5505 127.977 62.2432 124.559L54.3882 118.37ZM51.4704 119.787C51.3433 119.787 51.1067 119.764 50.7361 119.641L47.5739 129.127C48.8141 129.541 50.121 129.787 51.4704 129.787V119.787ZM47.38 273.103V278.103H49.4016L50.8551 276.698L47.38 273.103ZM44.36 273.103L40.8245 276.639L42.2889 278.103H44.36V273.103ZM31.072 259.815H26.072V261.886L27.5365 263.351L31.072 259.815ZM31.072 256.997L27.5499 253.448L26.072 254.914V256.997H31.072ZM44.36 243.809V238.809H42.3001L40.8379 240.26L44.36 243.809ZM47.38 243.809L50.8395 240.199L49.389 238.809H47.38V243.809ZM59.46 255.386L56.0005 258.996L59.5192 262.368L62.9802 258.937L59.46 255.386ZM71.1373 243.809V238.809H69.0789L67.6171 240.259L71.1373 243.809ZM74.1573 243.809L77.6129 240.196L76.1631 238.809H74.1573V243.809ZM87.9487 256.997H92.9487V254.86L91.4042 253.383L87.9487 256.997ZM87.9487 259.815L91.4179 263.416L92.9487 261.941V259.815H87.9487ZM74.1573 273.103V278.103H76.1742L77.6266 276.704L74.1573 273.103ZM71.1373 273.103L67.6018 276.639L69.0663 278.103H71.1373V273.103ZM59.46 261.426L62.9955 257.89L59.5194 254.414L55.9849 257.831L59.46 261.426ZM31.978 233.743L30.3162 238.458L30.3232 238.461L30.3302 238.463L31.978 233.743ZM14.9653 223.777L11.4864 227.368L11.4864 227.368L14.9653 223.777ZM4.89867 209.18L9.48577 207.19L9.48135 207.18L9.47689 207.17L4.89867 209.18ZM1.07333 191.765L6.07213 191.655L1.07333 191.765ZM3.38867 173.141L-1.44336 171.856L-1.44336 171.856L3.38867 173.141ZM11.14 155.021V150.021H8.3203L6.86134 152.434L11.14 155.021ZM27.6493 155.021L32.1006 157.299L35.8239 150.021H27.6493V155.021ZM22.4147 170.725L17.447 170.158L17.443 170.193L17.4395 170.228L22.4147 170.725ZM24.0253 182.201L28.4775 179.926L28.4671 179.905L28.4565 179.885L24.0253 182.201ZM30.8707 189.651L33.602 185.463L33.5906 185.455L33.5792 185.448L30.8707 189.651ZM40.9373 193.879L42.1076 189.018L42.0649 189.007L42.022 188.998L40.9373 193.879ZM92.982 191.161L89.7073 187.382L89.6625 187.421L89.6186 187.461L92.982 191.161ZM97.6127 182L102.612 182.096L102.71 177H97.6127V182ZM57.648 182H52.648V187H57.648V182ZM57.95 168.209L62.9235 168.723L62.9243 168.715L62.9252 168.706L57.95 168.209ZM59.0573 161.464L54.199 160.282L54.1838 160.345L54.1703 160.407L59.0573 161.464ZM61.3727 154.619L65.9295 156.677L65.9416 156.65L65.9535 156.623L61.3727 154.619ZM65.2987 148.277L69.1907 151.415L69.1907 151.415L65.2987 148.277ZM71.0367 143.042L73.7799 147.222L73.8249 147.193L73.8693 147.162L71.0367 143.042ZM78.9893 139.519L80.3223 144.338L80.3559 144.328L80.3893 144.319L78.9893 139.519ZM137.879 138.109H142.879V133.109H137.879V138.109ZM137.879 182V187H142.879V182H137.879ZM115.229 182V177H110.229V182H115.229ZM109.995 217.938L105.665 215.437L105.665 215.437L109.995 217.938ZM47.38 268.103H44.36V278.103H47.38V268.103ZM47.8955 269.568L34.6075 256.28L27.5365 263.351L40.8245 276.639L47.8955 269.568ZM36.072 259.815V256.997H26.072V259.815H36.072ZM34.5941 260.546L47.8821 247.358L40.8379 240.26L27.5499 253.448L34.5941 260.546ZM44.36 248.809H47.38V238.809H44.36V248.809ZM43.9205 247.419L56.0005 258.996L62.9195 251.776L50.8395 240.199L43.9205 247.419ZM62.9802 258.937L74.6575 247.36L67.6171 240.259L55.9398 251.835L62.9802 258.937ZM71.1373 248.809H74.1573V238.809H71.1373V248.809ZM70.7018 247.423L84.4932 260.61L91.4042 253.383L77.6129 240.196L70.7018 247.423ZM82.9487 256.997V259.815H92.9487V256.997H82.9487ZM84.4795 256.215L70.6881 269.503L77.6266 276.704L91.4179 263.416L84.4795 256.215ZM74.1573 268.103H71.1373V278.103H74.1573V268.103ZM74.6729 269.568L62.9955 257.89L55.9245 264.962L67.6018 276.639L74.6729 269.568ZM55.9849 257.831L43.9049 269.508L50.8551 276.698L62.9351 265.021L55.9849 257.831ZM56.138 232.467C47.6006 232.467 40.1186 231.288 33.6258 229.022L30.3302 238.463C38.065 241.163 46.6896 242.467 56.138 242.467V232.467ZM33.6398 229.027C27.1081 226.725 22.1095 223.736 18.4443 220.185L11.4864 227.368C16.4113 232.139 22.7546 235.794 30.3162 238.458L33.6398 229.027ZM18.4443 220.185C14.6273 216.488 11.645 212.169 9.48577 207.19L0.311561 211.17C2.98429 217.332 6.71312 222.744 11.4864 227.368L18.4443 220.185ZM9.47689 207.17C7.32856 202.277 6.1922 197.118 6.07213 191.655L-3.92546 191.875C-3.77709 198.625 -2.36323 205.077 0.320447 211.19L9.47689 207.17ZM6.07213 191.655C5.94893 186.049 6.6556 180.311 8.22069 174.426L-1.44336 171.856C-3.23382 178.588 -4.07071 185.266 -3.92546 191.875L6.07213 191.655ZM8.22069 174.426C9.77265 168.591 12.1659 162.988 15.4187 157.608L6.86134 152.434C3.13453 158.598 0.360242 165.075 -1.44336 171.856L8.22069 174.426ZM11.14 160.021H27.6493V150.021H11.14V160.021ZM23.1981 152.744C20.0664 158.865 18.0722 164.687 17.447 170.158L27.3823 171.293C27.8309 167.368 29.3265 162.721 32.1006 157.299L23.1981 152.744ZM17.4395 170.228C16.9114 175.509 17.4468 180.41 19.5942 184.518L28.4565 179.885C27.5167 178.087 26.9784 175.337 27.3899 171.223L17.4395 170.228ZM19.5732 184.477C21.5419 188.329 24.4468 191.459 28.1622 193.854L33.5792 185.448C31.2545 183.95 29.5959 182.114 28.4775 179.926L19.5732 184.477ZM28.1393 193.839C31.733 196.182 35.647 197.825 39.8527 198.76L42.022 188.998C38.9797 188.322 36.1825 187.146 33.602 185.463L28.1393 193.839ZM39.7671 198.74C43.8097 199.713 48.0642 200.187 52.514 200.187V190.187C48.7762 190.187 45.3129 189.789 42.1076 189.018L39.7671 198.74ZM52.514 200.187H78.8887V190.187H52.514V200.187ZM78.8887 200.187C85.8526 200.187 92.0497 198.766 96.3454 194.86L89.6186 187.461C88.0085 188.925 84.8101 190.187 78.8887 190.187V200.187ZM96.2566 194.939C100.176 191.543 102.513 187.214 102.612 182.096L92.6136 181.904C92.5778 183.765 91.8282 185.544 89.7073 187.382L96.2566 194.939ZM97.6127 177H57.648V187H97.6127V177ZM62.648 182V174.148H52.648V182H62.648ZM62.648 174.148C62.648 172.302 62.7403 170.494 62.9235 168.723L52.9765 167.694C52.757 169.816 52.648 171.968 52.648 174.148H62.648ZM62.9252 168.706C63.1037 166.921 63.4378 164.864 63.9444 162.521L54.1703 160.407C53.603 163.031 53.199 165.47 52.9748 167.711L62.9252 168.706ZM63.9157 162.646C64.455 160.428 65.1314 158.444 65.9295 156.677L56.8158 152.561C55.7348 154.954 54.8676 157.533 54.199 160.282L63.9157 162.646ZM65.9535 156.623C66.692 154.935 67.7537 153.197 69.1907 151.415L61.4066 145.138C59.4881 147.517 57.9324 150.008 56.7919 152.615L65.9535 156.623ZM69.1907 151.415C70.5554 149.723 72.0845 148.335 73.7799 147.222L68.2934 138.862C65.6937 140.568 63.3975 142.669 61.4066 145.138L69.1907 151.415ZM73.8693 147.162C75.4593 146.069 77.5724 145.098 80.3223 144.338L77.6564 134.7C74.0979 135.684 70.9091 137.062 68.204 138.922L73.8693 147.162ZM80.3893 144.319C83.09 143.531 86.1674 143.109 89.66 143.109V133.109C85.3677 133.109 81.3314 133.627 77.5893 134.719L80.3893 144.319ZM89.66 143.109H137.879V133.109H89.66V143.109ZM132.879 138.109V182H142.879V138.109H132.879ZM137.879 177H115.229V187H137.879V177ZM110.229 182V198.207H120.229V182H110.229ZM110.229 198.207C110.229 204.461 108.707 210.173 105.665 215.437L114.324 220.439C118.262 213.623 120.229 206.181 120.229 198.207H110.229ZM105.665 215.437C102.614 220.718 98.4796 224.852 93.1986 227.903L98.2014 236.562C105 232.634 110.396 227.238 114.324 220.439L105.665 215.437ZM93.1986 227.903C87.9347 230.945 82.2231 232.467 75.9693 232.467V242.467C83.9431 242.467 91.3853 240.5 98.2014 236.562L93.1986 227.903ZM75.9693 232.467H56.138V242.467H75.9693V232.467ZM123.631 182H118.631V187H123.631V182ZM123.631 138.109V133.109H118.631V138.109H123.631ZM151.012 138.109V143.109H161.236L154.959 135.04L151.012 138.109ZM154.737 115.963L158.796 118.883L158.803 118.873L158.81 118.863L154.737 115.963ZM163.696 103.379L160.161 99.8438L159.866 100.139L159.623 100.479L163.696 103.379ZM164.904 101.769L160.872 98.8118L160.872 98.8119L164.904 101.769ZM166.515 99.7553L170.051 103.291L170.211 103.13L170.356 102.956L166.515 99.7553ZM168.327 97.5407L164.564 94.2481L164.504 94.3169L164.447 94.3877L168.327 97.5407ZM170.844 95.2253L173.528 99.4436L173.573 99.4151L173.617 99.3856L170.844 95.2253ZM173.864 93.1113L176.791 97.1647L176.863 97.1127L176.933 97.0581L173.864 93.1113ZM177.588 90.9973L175.86 86.3056L175.86 86.3056L177.588 90.9973ZM181.917 89.4873L180.336 84.7439L180.336 84.7439L181.917 89.4873ZM187.252 88.38L187.767 93.3535L187.851 93.3447L187.936 93.3331L187.252 88.38ZM202.755 89.588L201.112 94.3105L201.159 94.3265L201.205 94.3417L202.755 89.588ZM210.909 93.4133L208.163 97.5919L208.232 97.6369L208.302 97.6797L210.909 93.4133ZM217.855 98.8493L214.374 102.439L214.43 102.492L214.486 102.544L217.855 98.8493ZM223.392 104.587L219.502 107.729L219.538 107.773L219.575 107.817L223.392 104.587ZM227.519 110.124L223.337 112.864L223.392 112.948L223.45 113.03L227.519 110.124ZM230.036 113.949L225.564 116.185L225.703 116.464L225.875 116.723L230.036 113.949ZM230.942 115.459L232.961 120.033L237.76 117.915L235.414 113.223L230.942 115.459ZM207.688 125.727L203.741 128.797L206.137 131.878L209.707 130.301L207.688 125.727ZM205.574 123.009L201.505 125.916L201.564 125.999L201.627 126.079L205.574 123.009ZM200.238 116.768L196.548 120.142L196.599 120.197L196.65 120.25L200.238 116.768ZM194.601 111.835L197.12 107.516L197.072 107.488L197.023 107.461L194.601 111.835ZM182.42 109.923L183.267 114.85L183.298 114.845L183.328 114.84L182.42 109.923ZM171.246 115.761L167.711 112.226L166.156 113.781L166.251 115.979L171.246 115.761ZM171.347 118.077L166.352 118.294L166.352 118.294L171.347 118.077ZM172.656 123.714L167.957 125.423L167.965 125.446L167.974 125.47L172.656 123.714ZM175.978 130.257L171.759 132.942L171.807 133.017L171.858 133.09L175.978 130.257ZM182.823 135.794L180.587 140.266L180.606 140.276L180.625 140.285L182.823 135.794ZM211.916 137.304L212.311 142.288L212.333 142.287L212.355 142.285L211.916 137.304ZM226.11 135.895L226.746 140.854L226.799 140.847L226.851 140.839L226.11 135.895ZM232.452 134.989L237.004 137.057L240.724 128.867L231.805 130.031L232.452 134.989ZM216.446 170.222L211.893 168.154L211.891 168.159L216.446 170.222ZM208.996 178.779L206.301 174.567L206.282 174.58L206.262 174.592L208.996 178.779ZM198.225 177H123.631V187H198.225V177ZM128.631 182V138.109H118.631V182H128.631ZM123.631 143.109H151.012V133.109H123.631V143.109ZM154.959 135.04C153.784 133.529 153.292 131.77 153.703 129.325C154.147 126.684 155.67 123.227 158.796 118.883L150.678 113.043C147.093 118.027 144.639 122.925 143.842 127.666C143.012 132.603 144.012 137.253 147.066 141.179L154.959 135.04ZM158.81 118.863L167.769 106.279L159.623 100.479L150.664 113.063L158.81 118.863ZM167.232 106.915C167.437 106.709 167.593 106.515 167.607 106.498C167.663 106.43 167.715 106.364 167.756 106.311C167.842 106.201 167.941 106.069 168.049 105.926C168.266 105.636 168.564 105.233 168.936 104.725L160.872 98.8119C160.507 99.3107 160.234 99.6796 160.049 99.9263C159.955 100.052 159.895 100.13 159.863 100.171C159.846 100.193 159.85 100.188 159.868 100.166C159.876 100.155 159.9 100.126 159.934 100.087C159.957 100.061 160.041 99.9634 160.161 99.8438L167.232 106.915ZM168.936 104.725C169.281 104.256 169.555 103.896 169.765 103.634C169.995 103.347 170.078 103.264 170.051 103.291L162.98 96.2198C162.338 96.8612 161.595 97.8265 160.872 98.8118L168.936 104.725ZM170.356 102.956C170.714 102.527 171.337 101.766 172.208 100.694L164.447 94.3877C163.573 95.4631 162.987 96.1788 162.674 96.5544L170.356 102.956ZM172.09 100.833C172.887 99.9225 173.364 99.5483 173.528 99.4436L168.159 91.007C166.847 91.842 165.646 93.0112 164.564 94.2481L172.09 100.833ZM173.617 99.3856C174.494 98.8009 175.556 98.0566 176.791 97.1647L170.936 89.0579C169.755 89.911 168.804 90.576 168.07 91.0651L173.617 99.3856ZM176.933 97.0581C177.786 96.3951 178.581 95.9601 179.317 95.689L175.86 86.3056C174.045 86.9741 172.358 87.9485 170.794 89.1646L176.933 97.0581ZM179.317 95.6891C180.533 95.241 181.925 94.755 183.498 94.2307L180.336 84.7439C178.687 85.2934 177.194 85.8141 175.86 86.3056L179.317 95.6891ZM183.498 94.2308C184.715 93.8251 186.13 93.5228 187.767 93.3535L186.738 83.4065C184.483 83.6399 182.34 84.0758 180.336 84.7439L183.498 94.2308ZM187.936 93.3331C189.636 93.0986 191.453 92.9773 193.393 92.9773V82.9773C191.038 82.9773 188.762 83.1245 186.569 83.4269L187.936 93.3331ZM193.393 92.9773C195.968 92.9773 198.534 93.4137 201.112 94.3105L204.398 84.8655C200.802 83.6148 197.127 82.9773 193.393 82.9773V92.9773ZM201.205 94.3417C203.934 95.2314 206.238 96.3266 208.163 97.5919L213.655 89.2348C210.883 87.4129 207.751 85.9579 204.305 84.8344L201.205 94.3417ZM208.302 97.6797C210.376 98.9472 212.401 100.526 214.374 102.439L221.336 95.2598C218.879 92.8778 216.274 90.8323 213.516 89.1469L208.302 97.6797ZM214.486 102.544C216.645 104.512 218.299 106.239 219.502 107.729L227.281 101.446C225.666 99.4456 223.629 97.3472 221.224 95.1546L214.486 102.544ZM219.575 107.817C220.917 109.404 222.171 111.085 223.337 112.864L231.701 107.384C230.317 105.27 228.819 103.261 227.209 101.358L219.575 107.817ZM223.45 113.03C224.101 113.941 224.606 114.673 224.978 115.238C225.163 115.519 225.305 115.743 225.409 115.916C225.46 116.002 225.499 116.068 225.526 116.116C225.554 116.166 225.565 116.188 225.564 116.185L234.508 111.713C233.966 110.631 232.887 109.037 231.588 107.218L223.45 113.03ZM225.875 116.723C226.224 117.245 226.399 117.555 226.47 117.695L235.414 113.223C235.081 112.558 234.653 111.862 234.196 111.176L225.875 116.723ZM228.922 110.885L205.668 121.153L209.707 130.301L232.961 120.033L228.922 110.885ZM211.634 122.658L209.52 119.94L201.627 126.079L203.741 128.797L211.634 122.658ZM209.642 120.103C208.112 117.96 206.155 115.685 203.826 113.286L196.65 120.25C198.751 122.414 200.351 124.3 201.505 125.916L209.642 120.103ZM203.929 113.394C201.645 110.896 199.368 108.827 197.12 107.516L192.082 116.154C193.056 116.722 194.537 117.942 196.548 120.142L203.929 113.394ZM197.023 107.461C192.216 104.8 186.974 103.998 181.513 105.006L183.328 114.84C186.592 114.237 189.47 114.71 192.179 116.21L197.023 107.461ZM181.573 104.995C176.234 105.913 171.577 108.359 167.711 112.226L174.782 119.297C177.224 116.855 180.016 115.409 183.267 114.85L181.573 104.995ZM166.251 115.979L166.352 118.294L176.342 117.859L176.242 115.544L166.251 115.979ZM166.352 118.294C166.449 120.54 167.059 122.953 167.957 125.423L177.355 122.005C176.642 120.046 176.379 118.701 176.342 117.859L166.352 118.294ZM167.974 125.47C168.917 127.985 170.19 130.475 171.759 132.942L180.196 127.573C178.947 125.61 178.005 123.738 177.337 121.958L167.974 125.47ZM171.858 133.09C173.944 136.124 176.98 138.463 180.587 140.266L185.059 131.322C182.492 130.038 180.965 128.685 180.098 127.425L171.858 133.09ZM180.625 140.285C184.599 142.23 189.107 143.109 193.997 143.109V133.109C190.297 133.109 187.355 132.445 185.021 131.303L180.625 140.285ZM193.997 143.109C199.33 143.109 205.439 142.833 212.311 142.288L211.521 132.32C204.836 132.849 198.999 133.109 193.997 133.109V143.109ZM212.355 142.285C219.195 141.681 224.018 141.204 226.746 140.854L225.474 130.935C222.967 131.257 218.327 131.719 211.476 132.323L212.355 142.285ZM226.851 140.839C229.524 140.439 231.601 140.142 233.098 139.947L231.805 130.031C230.215 130.238 228.065 130.545 225.368 130.95L226.851 140.839ZM227.899 132.921L211.893 168.154L220.998 172.29L237.004 137.057L227.899 132.921ZM211.891 168.159C210.688 170.817 208.86 172.93 206.301 174.567L211.692 182.99C215.844 180.332 218.982 176.741 221.001 172.285L211.891 168.159ZM206.262 174.592C203.779 176.214 201.137 177 198.225 177V187C203.098 187 207.637 185.638 211.73 182.965L206.262 174.592ZM276.475 32.9473H271.475V42.7105L279.398 37.0045L276.475 32.9473ZM276.475 23.988L273.469 19.9926L271.475 21.4928V23.988H276.475ZM307.783 0.431995H312.783V-9.58731L304.776 -3.56337L307.783 0.431995ZM307.783 10.398L310.705 14.4552L312.783 12.9586V10.398H307.783ZM281.475 32.9473V23.988H271.475V32.9473H281.475ZM279.481 27.9834L310.789 4.42737L304.776 -3.56337L273.469 19.9926L279.481 27.9834ZM302.783 0.431995V10.398H312.783V0.431995H302.783ZM304.86 6.34083L273.553 28.8902L279.398 37.0045L310.705 14.4552L304.86 6.34083ZM287.725 69.1527L284.176 72.6747L285.643 74.1527H287.725V69.1527ZM274.537 55.8647H269.537V57.9246L270.989 59.3867L274.537 55.8647ZM274.537 53.046L271.002 49.5105L269.537 50.9749V53.046H274.537ZM287.725 39.8587V34.8587H285.654L284.189 36.3231L287.725 39.8587ZM290.745 39.8587L294.2 36.2449L292.751 34.8587H290.745V39.8587ZM304.536 53.046H309.536V50.9091L307.992 49.4322L304.536 53.046ZM304.536 55.8647L308.005 59.4653L309.536 57.9904V55.8647H304.536ZM290.745 69.1527V74.1527H292.762L294.214 72.7533L290.745 69.1527ZM268.397 178.376L265.804 182.651L265.83 182.667L265.856 182.682L268.397 178.376ZM258.934 168.511L254.517 170.853L254.527 170.872L254.536 170.89L258.934 168.511ZM262.155 122.103V117.103H258.944L257.608 120.025L262.155 122.103ZM271.517 122.103L276.261 123.684L278.455 117.103H271.517V122.103ZM271.316 123.009L276.248 123.831L276.248 123.831L271.316 123.009ZM271.014 125.325L275.976 125.945L275.978 125.927L275.98 125.909L271.014 125.325ZM270.913 128.445L275.902 128.113L275.902 128.113L270.913 128.445ZM271.517 131.767L266.7 133.106L266.734 133.228L266.774 133.348L271.517 131.767ZM273.128 134.989L269.059 137.895L269.179 138.062L269.311 138.218L273.128 134.989ZM276.349 137.203L274.38 141.799L274.38 141.799L276.349 137.203ZM310.375 138.109V143.109H314.85L315.344 138.661L310.375 138.109ZM310.475 137.203L305.506 136.651L305.506 136.651L310.475 137.203ZM310.173 134.586L315.041 133.441L315.041 133.441L310.173 134.586ZM308.865 130.66L304.142 132.303L304.186 132.429L304.237 132.553L308.865 130.66ZM305.643 125.526L301.792 128.714L301.819 128.747L301.847 128.78L305.643 125.526ZM299.805 119.587L303.113 115.837L303.113 115.837L299.805 119.587ZM290.443 113.144L287.892 117.444L287.919 117.46L287.946 117.476L290.443 113.144ZM276.953 106.399L272.368 104.405L270.36 109.022L274.991 110.998L276.953 106.399ZM288.731 79.32L290.482 74.6366L286.039 72.9754L284.146 77.3257L288.731 79.32ZM307.556 90.9973L304.112 94.6223L304.124 94.633L304.135 94.6436L307.556 90.9973ZM319.938 107.708L315.407 109.822L315.407 109.822L319.938 107.708ZM326.079 126.835L321.167 127.768L321.168 127.777L326.079 126.835ZM327.287 145.961L322.302 145.578L322.299 145.605L322.298 145.632L327.287 145.961ZM323.965 162.471L319.275 160.736L319.209 160.914L319.157 161.097L323.965 162.471ZM314.401 176.463L311.339 172.511L311.326 172.521L311.312 172.532L314.401 176.463ZM291.274 65.6306L278.086 52.3426L270.989 59.3867L284.176 72.6747L291.274 65.6306ZM279.537 55.8647V53.046H269.537V55.8647H279.537ZM278.073 56.5815L291.26 43.3942L284.189 36.3231L271.002 49.5105L278.073 56.5815ZM287.725 44.8587H290.745V34.8587H287.725V44.8587ZM287.289 43.4725L301.081 56.6598L307.992 49.4322L294.2 36.2449L287.289 43.4725ZM299.536 53.046V55.8647H309.536V53.046H299.536ZM301.067 52.264L287.276 65.552L294.214 72.7533L308.005 59.4653L301.067 52.264ZM290.745 64.1527H287.725V74.1527H290.745V64.1527ZM281.987 177C277.873 177 274.227 176.011 270.938 174.07L265.856 182.682C270.754 185.573 276.168 187 281.987 187V177ZM270.99 174.101C267.633 172.065 265.111 169.421 263.332 166.132L254.536 170.89C257.186 175.788 260.974 179.721 265.804 182.651L270.99 174.101ZM263.351 166.168C257.946 155.977 258.424 142.293 266.703 124.182L257.608 120.025C248.707 139.496 247.037 156.75 254.517 170.853L263.351 166.168ZM262.155 127.103H271.517V117.103H262.155V127.103ZM266.774 120.522C266.58 121.104 266.463 121.716 266.384 122.187L276.248 123.831C276.271 123.692 276.289 123.607 276.298 123.565C276.302 123.546 276.303 123.546 276.298 123.562C276.294 123.576 276.283 123.619 276.261 123.684L266.774 120.522ZM266.384 122.187C266.294 122.726 266.181 123.614 266.048 124.74L275.98 125.909C276.116 124.754 276.204 124.098 276.248 123.831L266.384 122.187ZM266.053 124.704C265.882 126.072 265.835 127.432 265.925 128.778L275.902 128.113C275.858 127.446 275.878 126.725 275.976 125.945L266.053 124.704ZM265.925 128.778C266.019 130.195 266.294 131.645 266.7 133.106L276.335 130.429C276.07 129.474 275.942 128.709 275.902 128.113L265.925 128.778ZM266.774 133.348C267.318 134.981 268.071 136.51 269.059 137.895L277.197 132.082C276.844 131.588 276.522 130.97 276.261 130.186L266.774 133.348ZM269.311 138.218C270.692 139.85 272.49 140.989 274.38 141.799L278.319 132.608C277.391 132.21 277.041 131.872 276.945 131.759L269.311 138.218ZM274.38 141.799C276.555 142.731 278.935 143.109 281.383 143.109V133.109C279.938 133.109 278.963 132.883 278.319 132.608L274.38 141.799ZM281.383 143.109H310.375V133.109H281.383V143.109ZM315.344 138.661L315.445 137.755L305.506 136.651L305.405 137.557L315.344 138.661ZM315.445 137.756C315.609 136.275 315.342 134.721 315.041 133.441L305.306 135.731C305.41 136.171 305.461 136.477 305.483 136.669C305.508 136.881 305.484 136.848 305.506 136.651L315.445 137.756ZM315.041 133.441C314.695 131.972 314.163 130.406 313.493 128.767L304.237 132.553C304.775 133.867 305.115 134.918 305.306 135.731L315.041 133.441ZM313.587 129.017C312.768 126.661 311.269 124.406 309.44 122.272L301.847 128.78C303.239 130.404 303.888 131.572 304.142 132.303L313.587 129.017ZM309.495 122.338C307.689 120.155 305.552 117.99 303.113 115.837L296.497 123.336C298.621 125.21 300.377 127.004 301.792 128.714L309.495 122.338ZM303.113 115.837C300.49 113.523 297.06 111.186 292.939 108.812L287.946 117.476C291.745 119.665 294.556 121.624 296.497 123.336L303.113 115.837ZM292.994 108.844C288.813 106.364 284.115 104.019 278.916 101.8L274.991 110.998C279.859 113.075 284.153 115.226 287.892 117.444L292.994 108.844ZM281.539 108.394L293.317 81.3143L284.146 77.3257L272.368 104.405L281.539 108.394ZM286.981 84.0034C293.554 86.461 299.248 90.0013 304.112 94.6223L311 87.3723C305.126 81.7925 298.27 77.5479 290.482 74.6366L286.981 84.0034ZM304.135 94.6436C309.162 99.3601 312.888 104.423 315.407 109.822L324.469 105.594C321.351 98.9126 316.823 92.8355 310.977 87.3511L304.135 94.6436ZM315.407 109.822C318.046 115.477 319.967 121.455 321.167 127.768L330.991 125.901C329.64 118.792 327.468 112.019 324.469 105.594L315.407 109.822ZM321.168 127.777C322.368 134.029 322.734 139.958 322.302 145.578L332.272 146.345C332.779 139.751 332.339 132.928 330.989 125.892L321.168 127.777ZM322.298 145.632C321.921 151.339 320.894 156.358 319.275 160.736L328.654 164.205C330.659 158.785 331.847 152.798 332.276 146.29L322.298 145.632ZM319.157 161.097C317.848 165.68 315.288 169.452 311.339 172.511L317.463 180.416C323.045 176.093 326.861 170.536 328.772 163.844L319.157 161.097ZM311.312 172.532C307.506 175.522 303.228 177 298.295 177V187C305.442 187 311.901 184.786 317.491 180.395L311.312 172.532ZM298.295 177H281.987V187H298.295V177ZM384.495 67.3707V72.3707H388.52L389.38 68.4392L384.495 67.3707ZM382.281 61.4313L378.808 65.0283L378.84 65.0599L378.874 65.0908L382.281 61.4313ZM372.717 61.23L368.113 59.2818L368.08 59.3579L368.051 59.4351L372.717 61.23ZM371.711 65.458H366.711V65.7204L366.738 65.9814L371.711 65.458ZM365.369 66.7667L360.495 65.6498L360.481 65.7101L360.469 65.7708L365.369 66.7667ZM368.691 56.096L364.024 54.3011L364.02 54.3119L364.016 54.3227L368.691 56.096ZM373.523 49.5527L375.628 54.0877L375.669 54.0687L375.71 54.0488L373.523 49.5527ZM381.677 49.754L383.746 45.2022L383.746 45.2022L381.677 49.754ZM389.025 56.7L384.722 59.2466L384.753 59.2987L384.785 59.35L389.025 56.7ZM391.643 72.9073L386.864 71.4369L386.852 71.475L386.841 71.5133L391.643 72.9073ZM389.38 68.4392C390.312 64.1795 388.61 60.4922 385.688 57.7719L378.874 65.0908C379.421 65.6007 379.573 65.924 379.609 66.0221C379.627 66.0703 379.631 66.0971 379.632 66.116C379.633 66.1364 379.635 66.1937 379.611 66.3022L389.38 68.4392ZM385.754 57.8343C383.094 55.2663 379.825 53.6127 376.039 53.6127V63.6127C376.683 63.6127 377.575 63.8382 378.808 65.0283L385.754 57.8343ZM376.039 53.6127C374.236 53.6127 372.487 54.174 371.007 55.3395C369.602 56.4464 368.702 57.8893 368.113 59.2818L377.322 63.1782C377.471 62.8258 377.493 62.96 377.196 63.1945C377.04 63.3175 376.837 63.4337 376.601 63.5135C376.367 63.5923 376.169 63.6127 376.039 63.6127V53.6127ZM368.051 59.4351C367.298 61.3926 366.711 63.4765 366.711 65.458H376.711C376.711 65.2919 376.795 64.5572 377.384 63.0249L368.051 59.4351ZM366.738 65.9814C366.902 67.5389 367.549 69.3788 369.206 70.7473C370.792 72.0575 372.626 72.3707 374.026 72.3707V62.3707C374.039 62.3707 374.214 62.371 374.491 62.452C374.783 62.5372 375.178 62.7099 375.575 63.0377C376.459 63.7687 376.654 64.6522 376.683 64.9346L366.738 65.9814ZM374.026 72.3707H384.495V62.3707H374.026V72.3707ZM375.234 74.1487C371.763 74.1487 370.75 73.2672 370.487 72.9375C370.197 72.5735 369.55 71.2967 370.269 67.7626L360.469 65.7708C359.509 70.4913 359.668 75.4055 362.666 79.1689C365.692 82.9665 370.45 84.1487 375.234 84.1487V74.1487ZM370.242 67.8835C370.918 64.9338 371.951 61.5999 373.366 57.8693L364.016 54.3227C362.478 58.377 361.295 62.1569 360.495 65.6498L370.242 67.8835ZM373.357 57.8909C373.924 56.4189 374.468 55.4352 374.928 54.813C375.384 54.1949 375.647 54.0789 375.628 54.0877L371.417 45.0176C367.716 46.7358 365.492 50.4849 364.024 54.3011L373.357 57.8909ZM375.71 54.0488C376.613 53.6094 377.748 53.4604 379.608 54.3058L383.746 45.2022C379.7 43.3632 375.398 43.08 371.335 45.0565L375.71 54.0488ZM379.608 54.3058C381.471 55.1529 383.203 56.6786 384.722 59.2466L393.328 54.1534C390.956 50.1445 387.788 47.0396 383.746 45.2022L379.608 54.3058ZM384.785 59.35C386.317 61.8011 387.045 64.343 387.045 67.0687H397.045C397.045 62.4121 395.76 58.0416 393.265 54.05L384.785 59.35ZM387.045 67.0687V70.29H397.045V67.0687H387.045ZM387.045 70.29C387.045 70.6414 386.992 71.0187 386.864 71.4369L396.422 74.3778C396.83 73.0511 397.045 71.6835 397.045 70.29H387.045ZM386.841 71.5133C386.545 72.5319 386.107 73.0154 385.585 73.3388C384.952 73.7315 383.748 74.1487 381.576 74.1487V84.1487C384.907 84.1487 388.133 83.5256 390.855 81.8378C393.689 80.0808 395.532 77.4437 396.444 74.3014L386.841 71.5133ZM381.576 74.1487H375.234V84.1487H381.576V74.1487ZM366.885 136.096L364.111 140.256L364.143 140.277L364.174 140.297L366.885 136.096ZM394.367 138.109V143.109H405.238L398.163 134.855L394.367 138.109ZM390.743 133.881L394.539 130.627L394.539 130.627L390.743 133.881ZM381.482 125.425L378.447 129.399L378.464 129.412L378.482 129.425L381.482 125.425ZM388.83 237.87L391.01 242.37L391.02 242.365L388.83 237.87ZM365.476 235.756L363.938 240.514L363.967 240.523L363.997 240.532L365.476 235.756ZM325.511 222.871H320.511V227.871H325.511V222.871ZM325.511 217.133L323.93 212.389L320.511 213.529V217.133H325.511ZM331.551 215.119L333.132 219.863L333.144 219.859L333.156 219.855L331.551 215.119ZM346.45 209.482L344.593 204.84L344.584 204.843L344.575 204.847L346.45 209.482ZM364.771 201.529L362.695 196.981L362.674 196.99L362.654 197L364.771 201.529ZM381.683 191.966L378.848 187.847L378.835 187.856L378.823 187.865L381.683 191.966ZM391.85 182L396.283 184.313L400.099 177H391.85V182ZM357.523 175.557L361.059 172.022L361.059 172.022L357.523 175.557ZM357.926 109.923L354.16 106.634L354.148 106.647L354.136 106.661L357.926 109.923ZM396.682 106.601L394.068 110.863L394.089 110.876L394.11 110.888L396.682 106.601ZM408.762 119.385L404.379 121.791L404.39 121.811L404.402 121.832L408.762 119.385ZM414.098 138.109L409.109 138.445L409.423 143.109H414.098V138.109ZM441.278 138.109H446.278V133.109H441.278V138.109ZM441.278 182V187H446.278V182H441.278ZM411.279 182V177H406.532L406.286 181.74L411.279 182ZM403.528 216.73L408.177 218.568L408.177 218.568L403.528 216.73ZM372.019 116.197C368.419 116.197 364.831 117.194 362.225 120.026C359.691 122.779 358.865 126.43 358.865 130.056H368.865C368.865 127.776 369.398 126.998 369.582 126.798C369.694 126.677 370.183 126.197 372.019 126.197V116.197ZM358.865 130.056C358.865 134.197 360.537 137.873 364.111 140.256L369.658 131.936C369.206 131.634 368.865 131.284 368.865 130.056H358.865ZM364.174 140.297C366.991 142.115 370.103 143.109 373.428 143.109V133.109C372.19 133.109 370.94 132.762 369.596 131.895L364.174 140.297ZM373.428 143.109H394.367V133.109H373.428V143.109ZM398.163 134.855L394.539 130.627L386.947 137.135L390.571 141.363L398.163 134.855ZM394.539 130.627C391.833 127.47 388.459 124.408 384.482 121.425L378.482 129.425C382.021 132.08 384.821 134.655 386.947 137.135L394.539 130.627ZM384.516 121.451C380.552 118.424 376.302 116.197 372.019 116.197V126.197C372.97 126.197 375.029 126.789 378.447 129.399L384.516 121.451ZM386.651 233.37C385.687 233.837 383.726 234.239 380.221 233.922C376.806 233.613 372.408 232.668 366.954 230.98L363.997 240.532C369.818 242.334 374.95 243.486 379.32 243.881C383.599 244.269 387.679 243.983 391.01 242.37L386.651 233.37ZM367.013 230.998C353.725 226.703 343.749 223.481 337.087 221.333C333.756 220.259 331.251 219.453 329.574 218.915C328.736 218.646 328.101 218.443 327.671 218.307C327.458 218.239 327.287 218.185 327.166 218.147C327.107 218.129 327.046 218.11 326.992 218.094C326.969 218.087 326.921 218.073 326.867 218.058C326.844 218.051 326.782 218.034 326.704 218.015C326.668 218.006 326.584 217.986 326.477 217.965C326.423 217.954 326.289 217.932 326.21 217.92C326.085 217.904 325.736 217.876 325.511 217.871V227.871C325.286 227.866 324.937 227.838 324.813 227.822C324.734 227.81 324.602 227.787 324.548 227.777C324.442 227.756 324.36 227.736 324.326 227.728C324.252 227.71 324.196 227.694 324.181 227.69C324.158 227.684 324.141 227.679 324.134 227.677C324.126 227.674 324.121 227.673 324.12 227.673C324.119 227.672 324.125 227.674 324.138 227.678C324.152 227.682 324.169 227.688 324.192 227.695C324.286 227.724 324.435 227.771 324.644 227.837C325.059 227.969 325.683 228.169 326.519 228.437C328.189 228.973 330.688 229.777 334.018 230.851C340.677 232.998 350.65 236.219 363.938 240.514L367.013 230.998ZM330.511 222.871V217.133H320.511V222.871H330.511ZM327.092 221.876L333.132 219.863L329.97 210.376L323.93 212.389L327.092 221.876ZM333.156 219.855C337.241 218.47 342.305 216.552 348.325 214.117L344.575 204.847C338.649 207.244 333.78 209.084 329.946 210.384L333.156 219.855ZM348.307 214.124C354.438 211.672 360.632 208.983 366.888 206.059L362.654 197C356.561 199.847 350.541 202.46 344.593 204.84L348.307 214.124ZM366.847 206.078C373.271 203.145 379.174 199.811 384.543 196.067L378.823 187.865C373.991 191.234 368.619 194.276 362.695 196.981L366.847 206.078ZM384.518 196.085C389.899 192.381 394.102 188.493 396.283 184.313L387.417 179.687C386.377 181.681 383.802 184.437 378.848 187.847L384.518 196.085ZM391.85 177H373.126V187H391.85V177ZM373.126 177C368.337 177 364.41 175.374 361.059 172.022L353.987 179.093C359.226 184.331 365.701 187 373.126 187V177ZM361.059 172.022C357.707 168.67 356.08 164.743 356.08 159.954H346.08C346.08 167.379 348.749 173.854 353.987 179.093L361.059 172.022ZM356.08 159.954V130.861H346.08V159.954H356.08ZM356.08 130.861C356.08 123.106 358.106 117.378 361.715 113.185L354.136 106.661C348.619 113.071 346.08 121.302 346.08 130.861H356.08ZM361.691 113.212C365.021 109.4 370.71 106.97 379.972 106.97V96.97C369.1 96.97 360.092 99.8417 354.16 106.634L361.691 113.212ZM379.972 106.97C385.189 106.97 389.849 108.275 394.068 110.863L399.296 102.338C393.449 98.7518 386.968 96.97 379.972 96.97V106.97ZM394.11 110.888C398.331 113.421 401.755 117.009 404.379 121.791L413.146 116.98C409.73 110.756 405.101 105.821 399.255 102.313L394.11 110.888ZM404.402 121.832C407.087 126.619 408.684 132.126 409.109 138.445L419.086 137.774C418.572 130.134 416.612 123.158 413.123 116.939L404.402 121.832ZM414.098 143.109H441.278V133.109H414.098V143.109ZM436.278 138.109V182H446.278V138.109H436.278ZM441.278 177H411.279V187H441.278V177ZM406.286 181.74C405.712 192.774 403.256 203.818 398.878 214.892L408.177 218.568C412.927 206.555 415.638 194.447 416.272 182.26L406.286 181.74ZM398.878 214.892C396.681 220.449 394.481 224.717 392.325 227.818C390.149 230.949 388.21 232.61 386.64 233.375L391.02 242.365C394.685 240.58 397.814 237.442 400.536 233.527C403.279 229.581 405.811 224.554 408.177 218.568L398.878 214.892ZM441.926 53.9473H436.926V63.7105L444.849 58.0045L441.926 53.9473ZM441.926 44.988L438.92 40.9926L436.926 42.4928V44.988H441.926ZM473.234 21.432H478.234V11.4127L470.228 17.4366L473.234 21.432ZM473.234 31.398L476.156 35.4552L478.234 33.9586V31.398H473.234ZM446.926 53.9473V44.988H436.926V53.9473H446.926ZM444.933 48.9834L476.24 25.4274L470.228 17.4366L438.92 40.9926L444.933 48.9834ZM468.234 21.432V31.398H478.234V21.432H468.234ZM470.312 27.3408L439.004 49.8902L444.849 58.0045L476.156 35.4552L470.312 27.3408ZM427.401 182H422.401V187H427.401V182ZM427.401 138.109V133.109H422.401V138.109H427.401ZM456.191 135.794L460.212 138.766L460.242 138.725L460.271 138.684L456.191 135.794ZM456.393 128.747L461.146 127.197L461.143 127.187L461.139 127.176L456.393 128.747ZM441.796 84.6553L437.035 86.1835L437.042 86.2051L437.049 86.2267L441.796 84.6553ZM445.521 71.166L448.739 74.9921L448.741 74.9909L445.521 71.166ZM476.727 44.892L481.53 43.5011L479.39 36.1137L473.507 41.0671L476.727 44.892ZM487.398 81.736L490.281 85.8208L493.192 83.7666L492.201 80.3451L487.398 81.736ZM477.13 88.984L474.247 84.8992L472.13 86.3932V88.984H477.13ZM469.278 174.148L472.813 177.684L472.825 177.672L472.836 177.661L469.278 174.148ZM432.401 182V138.109H422.401V182H432.401ZM427.401 143.109H448.339V133.109H427.401V143.109ZM448.339 143.109C450.651 143.109 452.851 142.897 454.787 142.326C456.712 141.759 458.772 140.714 460.212 138.766L452.17 132.822C452.47 132.417 452.65 132.531 451.958 132.735C451.277 132.936 450.121 133.109 448.339 133.109V143.109ZM460.271 138.684C462.787 135.132 462.327 130.82 461.146 127.197L451.639 130.297C452.027 131.488 452.112 132.254 452.099 132.682C452.088 133.061 452.01 133.047 452.111 132.904L460.271 138.684ZM461.139 127.176L446.543 83.084L437.049 86.2267L451.646 130.319L461.139 127.176ZM446.557 83.1272C445.915 81.1272 445.929 79.6554 446.238 78.5368C446.543 77.4319 447.253 76.2425 448.739 74.9921L442.302 67.3399C439.56 69.6464 437.535 72.4836 436.599 75.8752C435.666 79.2531 435.932 82.7475 437.035 86.1835L446.557 83.1272ZM448.741 74.9909L479.948 48.7169L473.507 41.0671L442.3 67.3411L448.741 74.9909ZM471.925 46.2829L482.595 83.1269L492.201 80.3451L481.53 43.5011L471.925 46.2829ZM484.515 77.6512L474.247 84.8992L480.013 93.0688L490.281 85.8208L484.515 77.6512ZM472.13 88.984V155.122H482.13V88.984H472.13ZM472.13 155.122C472.13 161.176 470.04 166.259 465.72 170.635L472.836 177.661C478.985 171.433 482.13 163.833 482.13 155.122H472.13ZM465.742 170.612C461.442 174.912 456.405 177 450.353 177V187C459.065 187 466.644 183.853 472.813 177.684L465.742 170.612ZM450.353 177H427.401V187H450.353V177Z" fill="black" mask="url(#path-1-outside-1_1_4)"/>
</svg>
