<svg width="488" height="274" viewBox="0 0 488 274" fill="none" xmlns="http://www.w3.org/2000/svg">
<path d="M49.155 124.384C48.8195 126.934 47.7457 129.115 45.9337 130.927C44.1217 132.672 41.907 133.545 39.2897 133.545C37.7461 133.545 36.3368 133.243 35.0617 132.639C33.8537 132.035 32.847 131.229 32.0417 130.223C31.3035 129.149 30.733 127.941 30.3304 126.599C29.9277 125.189 29.7264 123.679 29.7264 122.069V118.042L35.7664 113.613V117.337C35.7664 118.277 36.0348 119.049 36.5717 119.653C37.1757 120.257 37.9139 120.559 38.7864 120.559C39.6588 120.559 40.4641 120.257 41.2024 119.653C41.9406 118.982 42.3097 118.21 42.3097 117.337V108.881L47.8464 104.955V108.378C47.8464 109.318 48.1484 110.123 48.7524 110.794C49.3564 111.398 50.0946 111.7 50.967 111.7C51.8395 111.7 52.5441 111.398 53.081 110.794C53.685 110.123 53.987 109.318 53.987 108.378V100.526L60.933 95.4927V113.311C60.933 116.532 60.0606 119.25 58.3157 121.465C56.5708 123.679 54.289 124.787 51.4704 124.787C50.7321 124.787 49.9604 124.652 49.155 124.384ZM47.38 273.103H44.36L31.072 259.815V256.997L44.36 243.809H47.38L59.46 255.386L71.1373 243.809H74.1573L87.9487 256.997V259.815L74.1573 273.103H71.1373L59.46 261.426L47.38 273.103ZM56.138 237.467C47.1451 237.467 39.0918 236.226 31.978 233.743C24.9313 231.26 19.2604 227.938 14.9653 223.777C10.6702 219.616 7.31467 214.75 4.89867 209.18C2.48267 203.677 1.20756 197.872 1.07333 191.765C0.939111 185.658 1.71089 179.45 3.38867 173.141C5.06644 166.833 7.65022 160.793 11.14 155.021H27.6493C24.6964 160.793 22.9516 166.028 22.4147 170.725C21.9449 175.423 22.4818 179.248 24.0253 182.201C25.5689 185.221 27.8507 187.704 30.8707 189.651C33.9578 191.664 37.3133 193.073 40.9373 193.879C44.5613 194.751 48.4202 195.187 52.514 195.187H78.8887C85.3313 195.187 90.0291 193.845 92.982 191.161C96.002 188.543 97.5456 185.49 97.6127 182H57.648V174.148C57.648 172.135 57.7487 170.155 57.95 168.209C58.1513 166.195 58.5204 163.947 59.0573 161.464C59.6613 158.981 60.4331 156.699 61.3727 154.619C62.3122 152.471 63.6209 150.357 65.2987 148.277C66.9764 146.196 68.8891 144.451 71.0367 143.042C73.1842 141.566 75.8351 140.391 78.9893 139.519C82.2107 138.579 85.7676 138.109 89.66 138.109H137.879V182H115.229V198.207C115.229 205.321 113.484 211.898 109.995 217.938C106.505 223.978 101.74 228.743 95.7 232.233C89.66 235.722 83.0831 237.467 75.9693 237.467H56.138ZM198.225 182H123.631V138.109H151.012C146.784 132.673 148.026 125.291 154.737 115.963L163.696 103.379C163.764 103.312 164.166 102.775 164.904 101.769C165.643 100.762 166.18 100.091 166.515 99.7553C166.851 99.3527 167.455 98.6144 168.327 97.5407C169.267 96.4669 170.106 95.6951 170.844 95.2253C171.649 94.6884 172.656 93.9838 173.864 93.1113C175.072 92.1718 176.313 91.4671 177.588 90.9973C178.864 90.5276 180.306 90.0242 181.917 89.4873C183.528 88.9504 185.306 88.5813 187.252 88.38C189.199 88.1116 191.246 87.9773 193.393 87.9773C196.547 87.9773 199.668 88.5142 202.755 89.588C205.842 90.5947 208.56 91.8698 210.909 93.4133C213.325 94.8898 215.64 96.7018 217.855 98.8493C220.137 100.93 221.982 102.842 223.392 104.587C224.868 106.332 226.244 108.178 227.519 110.124C228.861 112.003 229.7 113.278 230.036 113.949C230.438 114.553 230.74 115.057 230.942 115.459L207.688 125.727L205.574 123.009C204.232 121.13 202.453 119.05 200.238 116.768C198.091 114.419 196.212 112.775 194.601 111.835C190.843 109.755 186.783 109.117 182.42 109.923C178.125 110.661 174.401 112.607 171.246 115.761L171.347 118.077C171.414 119.62 171.85 121.499 172.656 123.714C173.461 125.862 174.568 128.043 175.978 130.257C177.454 132.405 179.736 134.25 182.823 135.794C185.977 137.338 189.702 138.109 193.997 138.109C199.165 138.109 205.138 137.841 211.916 137.304C218.761 136.7 223.492 136.23 226.11 135.895C228.794 135.492 230.908 135.19 232.452 134.989L216.446 170.222C214.835 173.779 212.352 176.631 208.996 178.779C205.708 180.926 202.118 182 198.225 182ZM276.475 32.9473V23.988L307.783 0.431995V10.398L276.475 32.9473ZM287.725 69.1527L274.537 55.8647V53.046L287.725 39.8587H290.745L304.536 53.046V55.8647L290.745 69.1527H287.725ZM281.987 182C277.021 182 272.491 180.792 268.397 178.376C264.303 175.893 261.149 172.604 258.934 168.511C252.491 156.364 253.565 140.894 262.155 122.103H271.517C271.45 122.305 271.383 122.607 271.316 123.009C271.249 123.412 271.148 124.184 271.014 125.325C270.88 126.398 270.846 127.439 270.913 128.445C270.981 129.452 271.182 130.559 271.517 131.767C271.92 132.975 272.457 134.049 273.128 134.989C273.866 135.861 274.94 136.599 276.349 137.203C277.759 137.807 279.437 138.109 281.383 138.109H310.375L310.475 137.203C310.543 136.599 310.442 135.727 310.173 134.586C309.905 133.445 309.469 132.136 308.865 130.66C308.328 129.116 307.254 127.405 305.643 125.526C304.033 123.58 302.087 121.6 299.805 119.587C297.523 117.573 294.402 115.426 290.443 113.144C286.483 110.795 281.987 108.547 276.953 106.399L288.731 79.32C295.912 82.0044 302.187 85.8969 307.556 90.9973C312.992 96.0978 317.119 101.668 319.938 107.708C322.757 113.748 324.804 120.124 326.079 126.835C327.354 133.479 327.757 139.854 327.287 145.961C326.884 152.068 325.777 157.572 323.965 162.471C322.354 168.108 319.166 172.772 314.401 176.463C309.704 180.154 304.335 182 298.295 182H281.987ZM384.495 67.3707C384.965 65.2231 384.227 63.2433 382.281 61.4313C380.334 59.5522 378.254 58.6127 376.039 58.6127C374.563 58.6127 373.456 59.4851 372.717 61.23C372.046 62.9749 371.711 64.3842 371.711 65.458C371.845 66.7331 372.617 67.3707 374.026 67.3707H384.495ZM375.234 79.1487C366.979 79.1487 363.691 75.0213 365.369 66.7667C366.107 63.5453 367.214 59.9884 368.691 56.096C370.033 52.6062 371.644 50.4251 373.523 49.5527C376.006 48.3447 378.724 48.4118 381.677 49.754C384.63 51.0962 387.079 53.4116 389.025 56.7C391.039 59.9213 392.045 63.3776 392.045 67.0687V70.29C392.045 71.1624 391.911 72.0349 391.643 72.9073C390.435 77.0682 387.079 79.1487 381.576 79.1487H375.234ZM372.019 121.197C366.583 121.197 363.865 124.15 363.865 130.056C363.865 132.74 364.872 134.754 366.885 136.096C368.965 137.438 371.147 138.109 373.428 138.109H394.367L390.743 133.881C388.327 131.063 385.24 128.244 381.482 125.425C377.791 122.607 374.636 121.197 372.019 121.197ZM388.83 237.87C384.535 239.95 376.75 239.246 365.476 235.756C338.9 227.166 325.578 222.871 325.511 222.871V217.133L331.551 215.119C335.511 213.777 340.477 211.898 346.45 209.482C352.49 207.066 358.597 204.415 364.771 201.529C370.945 198.711 376.583 195.523 381.683 191.966C386.851 188.409 390.24 185.087 391.85 182H373.126C367.019 182 361.818 179.852 357.523 175.557C353.228 171.262 351.08 166.061 351.08 159.954V130.861C351.08 122.204 353.362 115.224 357.926 109.923C362.556 104.621 369.905 101.97 379.972 101.97C386.079 101.97 391.649 103.514 396.682 106.601C401.716 109.621 405.742 113.882 408.762 119.385C411.849 124.888 413.628 131.13 414.098 138.109H441.278V182H411.279C410.675 193.61 408.091 205.187 403.528 216.73C398.964 228.273 394.065 235.32 388.83 237.87ZM441.926 53.9473V44.988L473.234 21.432V31.398L441.926 53.9473ZM427.401 182V138.109H448.339C452.433 138.109 455.05 137.338 456.191 135.794C457.332 134.183 457.399 131.834 456.393 128.747L441.796 84.6553C440.051 79.2193 441.293 74.7229 445.521 71.166L476.727 44.892L487.398 81.736L477.13 88.984V155.122C477.13 162.504 474.513 168.846 469.278 174.148C464.043 179.383 457.735 182 450.353 182H427.401Z" fill="white"/>
</svg>
